<svg width="16" height="18" viewBox="0 0 16 18" fill="none" xmlns="http://www.w3.org/2000/svg">
<path fill-rule="evenodd" clip-rule="evenodd" d="M6.76107 15.2048H9.23893C9.18773 15.8338 8.65358 16.3309 8 16.3309C7.34642 16.3309 6.81227 15.8338 6.76107 15.2048ZM2.04028 15.2048H5.07042C5.12336 16.7585 6.41619 18 8 18C9.58381 18 10.8766 16.7585 10.9296 15.2048H13.9597C15.0842 15.2048 16 14.3046 16 13.1933C16 12.165 15.2167 11.3182 14.2111 11.1967V7.89662C14.2111 5.42003 12.7102 3.23082 10.4778 2.27306C10.3846 1.00169 9.30913 0 8 0C6.69205 0 5.61548 1.00166 5.52219 2.27305C3.28982 3.23074 1.78895 5.41897 1.78895 7.89662V11.1967C0.782259 11.3181 0 12.165 0 13.1933C0 14.3057 0.914565 15.2048 2.04028 15.2048ZM8.79565 2.4505V3.461L9.38294 3.64595C11.2391 4.23326 12.5227 5.9431 12.5227 7.89656V11.4276C12.5227 12.2157 13.168 12.8506 13.962 12.8506C14.1559 12.8506 14.3117 13.0067 14.3117 13.1931C14.3117 13.3791 14.1563 13.5356 13.9597 13.5356H2.04025C1.84353 13.5356 1.68829 13.3801 1.68829 13.1931C1.68829 13.0067 1.84403 12.8506 2.03792 12.8506C2.83074 12.8506 3.47723 12.2145 3.47723 11.4276V7.89656C3.47723 5.94301 4.76092 4.23329 6.617 3.64595L7.20423 3.461V2.4505C7.20423 2.02168 7.56023 1.66894 7.99994 1.66894C8.44073 1.66894 8.79565 2.0216 8.79565 2.4505Z" />
</svg>
