<svg width="12" height="12" viewBox="0 0 12 12" xmlns="http://www.w3.org/2000/svg">
<path d="M6 0C2.68629 0 0 2.68629 0 6C0 9.31371 2.68629 12 6 12C9.31371 12 12 9.31371 12 6C11.9964 2.68777 9.31223 0.00358594 6 0ZM6 10.5C3.51471 10.5 1.5 8.48529 1.5 6C1.5 3.51471 3.51471 1.5 6 1.5C8.48529 1.5 10.5 3.51471 10.5 6C10.4972 8.48414 8.48414 10.4972 6 10.5Z" />
<path d="M4.95503 8.66667C4.6723 8.66688 4.40125 8.54367 4.20231 8.32449L2.86399 6.86678C2.60144 6.58051 2.60131 6.11624 2.86369 5.82979C2.8638 5.82967 2.8639 5.82956 2.86399 5.82945C3.12643 5.5432 3.55185 5.5432 3.8143 5.82945L4.95503 7.07353L8.18635 3.54803C8.4488 3.26178 8.87422 3.26178 9.13666 3.54803C9.39921 3.8343 9.39934 4.29856 9.13696 4.58501C9.13685 4.58513 9.13675 4.58524 9.13666 4.58534L5.70731 8.32692C5.50817 8.54518 5.2373 8.66752 4.95503 8.66667Z" />
</svg>
