<svg width="18" height="18" viewBox="0 0 18 18" xmlns="http://www.w3.org/2000/svg">
<path d="M17.2313 6.52045L11.9168 1.20595C10.3047 -0.401985 7.69535 -0.401985 6.08326 1.20595L0.768771 6.52045C0.274896 7.01169 -0.00192353 7.68008 1.00619e-05 8.3767V16.1602C0.0016624 17.1762 0.825302 17.9991 1.84128 17.9999H16.1588C17.1747 17.9991 17.9983 17.1762 18 16.1602V8.3767C18.002 7.68008 17.7251 7.01169 17.2313 6.52045ZM15.75 15.7499H12V13.3634C12 11.782 10.718 10.4999 9.13651 10.4999H8.86352C7.28206 10.4999 6.00002 11.782 6.00002 13.3634V15.7499H2.25001V8.3767C2.25025 8.27724 2.28956 8.1819 2.35952 8.1112L7.67401 2.7967C8.40614 2.06436 9.59333 2.06422 10.3257 2.79635C10.3258 2.79646 10.3259 2.7966 10.326 2.7967L15.6405 8.1112C15.7104 8.1819 15.7498 8.27724 15.75 8.3767V15.7499H15.75Z" />
</svg>
