<svg width="16" height="18" viewBox="0 0 16 18" fill="none" xmlns="http://www.w3.org/2000/svg">
<path d="M13.6 1.95525V1.125C13.6 0.826631 13.4736 0.540483 13.2485 0.329505C13.0235 0.118526 12.7183 0 12.4 0C12.0817 0 11.7765 0.118526 11.5515 0.329505C11.3264 0.540483 11.2 0.826631 11.2 1.125V1.5H9.2V1.125C9.2 0.826631 9.07357 0.540483 8.84853 0.329505C8.62348 0.118526 8.31826 0 8 0C7.68174 0 7.37652 0.118526 7.15147 0.329505C6.92643 0.540483 6.8 0.826631 6.8 1.125V1.5H4.8V1.125C4.8 0.826631 4.67357 0.540483 4.44853 0.329505C4.22348 0.118526 3.91826 0 3.6 0C3.28174 0 2.97652 0.118526 2.75147 0.329505C2.52643 0.540483 2.4 0.826631 2.4 1.125V1.95525C1.67835 2.3005 1.07239 2.82584 0.648915 3.47336C0.225437 4.12089 0.000881056 4.86546 0 5.625V13.875C0.00127054 14.9687 0.465249 16.0172 1.29013 16.7905C2.11502 17.5638 3.23344 17.9988 4.4 18H11.6C12.7665 17.9986 13.8848 17.5636 14.7096 16.7903C15.5345 16.017 15.9985 14.9686 16 13.875V5.625C15.9991 4.86546 15.7746 4.12089 15.3511 3.47336C14.9276 2.82584 14.3216 2.3005 13.6 1.95525ZM13.6 13.875C13.6 14.3723 13.3893 14.8492 13.0142 15.2008C12.6391 15.5525 12.1304 15.75 11.6 15.75H4.4C3.86957 15.75 3.36086 15.5525 2.98579 15.2008C2.61071 14.8492 2.4 14.3723 2.4 13.875V5.625C2.4 5.12772 2.61071 4.65081 2.98579 4.29917C3.36086 3.94754 3.86957 3.75 4.4 3.75H11.6C12.1304 3.75 12.6391 3.94754 13.0142 4.29917C13.3893 4.65081 13.6 5.12772 13.6 5.625V13.875ZM12 6.375C12 6.67337 11.8736 6.95952 11.6485 7.1705C11.4235 7.38147 11.1183 7.5 10.8 7.5H5.2C4.88174 7.5 4.57652 7.38147 4.35147 7.1705C4.12643 6.95952 4 6.67337 4 6.375C4 6.07663 4.12643 5.79048 4.35147 5.5795C4.57652 5.36853 4.88174 5.25 5.2 5.25H10.8C11.1183 5.25 11.4235 5.36853 11.6485 5.5795C11.8736 5.79048 12 6.07663 12 6.375ZM9.2 10.125C9.2 10.4234 9.07357 10.7095 8.84853 10.9205C8.62348 11.1315 8.31826 11.25 8 11.25H5.2C4.88174 11.25 4.57652 11.1315 4.35147 10.9205C4.12643 10.7095 4 10.4234 4 10.125C4 9.82663 4.12643 9.54048 4.35147 9.3295C4.57652 9.11853 4.88174 9 5.2 9H8C8.31826 9 8.62348 9.11853 8.84853 9.3295C9.07357 9.54048 9.2 9.82663 9.2 10.125Z" />
</svg>
