<svg width="18" height="18" viewBox="0 0 18 18" xmlns="http://www.w3.org/2000/svg">
<path fill-rule="evenodd" clip-rule="evenodd" d="M9 15.8C12.7555 15.8 15.8 12.7555 15.8 9C15.8 5.24446 12.7555 2.2 9 2.2C5.24446 2.2 2.2 5.24446 2.2 9C2.2 12.7555 5.24446 15.8 9 15.8ZM9 18C13.9706 18 18 13.9706 18 9C18 4.02944 13.9706 0 9 0C4.02944 0 0 4.02944 0 9C0 13.9706 4.02944 18 9 18Z" />
<path fill-rule="evenodd" clip-rule="evenodd" d="M3.28724 15.9611C4.29495 14.2047 6.09157 12.957 8.20402 12.6873C8.48702 12.6513 8.77472 12.6327 9.05772 12.6327C11.4845 12.6327 13.6459 13.9516 14.7991 15.9397C13.2399 17.2263 11.236 17.9999 9.05005 17.9999C6.84587 18.0171 4.84181 17.2476 3.28724 15.9611ZM12.5985 8.28853C12.5985 6.34565 11.0071 4.76523 9.05008 4.76523C7.09363 4.76523 5.50108 6.34565 5.50108 8.28853C5.50108 10.2308 7.09302 11.8112 9.04948 11.8112C11.0065 11.8112 12.5985 10.2308 12.5985 8.28853Z" />
</svg>
