<svg width="18" height="16" viewBox="0 0 18 16" xmlns="http://www.w3.org/2000/svg">
<path fill-rule="evenodd" clip-rule="evenodd" d="M8.99921 0.85614C12.3478 0.888766 15.4573 2.66365 17.2786 5.58192C18.2405 7.0458 18.2405 8.97218 17.2786 10.4361C15.4573 13.3544 12.3478 15.1293 8.99925 15.1619C5.64983 15.1282 2.54015 13.3515 0.719861 10.4314C-0.239954 8.96855 -0.239954 7.04474 0.719861 5.58192C2.54117 2.66365 5.65068 0.888766 8.99921 0.85614ZM8.99921 12.8131C11.6065 12.793 14.0244 11.3956 15.4149 9.10511C15.8485 8.4437 15.8485 7.57428 15.4149 6.91291C14.0244 4.62243 11.6064 3.22497 8.99921 3.20494C6.39195 3.22501 3.974 4.62243 2.58348 6.91291C2.14997 7.57428 2.14997 8.4437 2.58348 9.10511C3.97404 11.3956 6.39199 12.7931 8.99921 12.8131ZM12.0148 8.009C12.0148 9.7386 10.6647 11.1407 8.99921 11.1407C7.33374 11.1407 5.98361 9.7386 5.98361 8.009C5.98361 6.2794 7.33374 4.87728 8.99921 4.87728C10.6647 4.87728 12.0148 6.2794 12.0148 8.009Z" />
</svg>
