<svg width="18" height="18" viewBox="0 0 18 18" xmlns="http://www.w3.org/2000/svg">
<path d="M17.2798 6.55985C16.6965 5.67722 16.0019 4.87977 15.2148 4.18883L17.3386 1.98235C17.7675 1.51046 17.7471 0.766589 17.2931 0.320886C16.8567 -0.107408 16.1745 -0.106894 15.7388 0.322024L13.2915 2.86619C11.9592 2.17433 10.4885 1.81942 8.99923 1.83033C5.65043 1.86364 2.54079 3.63969 0.718629 6.55985C-0.239543 8.02437 -0.239543 9.94859 0.718629 11.4131C1.30201 12.2958 1.99653 13.0932 2.78369 13.7842L0.659822 15.993C0.21802 16.4521 0.21802 17.1965 0.659822 17.6556C1.10162 18.1148 1.81792 18.1148 2.25969 17.6556L4.707 15.1115C6.03926 15.8033 7.50995 16.1582 8.99923 16.1473C12.348 16.1141 15.4577 14.338 17.2798 11.4179C18.2401 9.95227 18.2401 8.02544 17.2798 6.55985ZM2.58391 10.0858C2.14974 9.4241 2.14974 8.5536 2.58391 7.89189C3.97416 5.59965 6.39203 4.20106 8.99923 4.181C9.87785 4.17656 10.7501 4.33581 11.5747 4.65113L10.1769 6.10306C8.64377 5.42666 6.87328 6.17001 6.22247 7.76334C5.90277 8.54599 5.90277 9.43009 6.22247 10.2127L4.38511 12.123C3.69196 11.5392 3.08512 10.8529 2.58391 10.0858ZM15.4146 10.0858C14.0243 12.3781 11.6064 13.7766 8.99923 13.7967C8.12061 13.8011 7.24832 13.6419 6.42374 13.3266L7.82155 11.8739C9.35469 12.5503 11.1252 11.8069 11.776 10.2136C12.0957 9.43094 12.0957 8.54684 11.776 7.76419L13.6134 5.85469C14.3065 6.4385 14.9133 7.12489 15.4145 7.89193C15.8487 8.5536 15.8487 9.4241 15.4146 10.0858Z" />
</svg>
